#!OML:ASF E:\emotionWalksFemale\Project 1\Capture day 1\Session 1\Female1.ASF
:FULLY-SPECIFIED
:DEGREES
319
root 8.49427 13.7697 23.2177 -169.785 -1.21982 -180.044
lowerback 12.5652 0.567375 1.32405
upperback -3.0183 1.02287 0.531307
thorax -10.3258 0.422777 -0.391531
lowerneck -12.6798 -1.16762 -3.7436
upperneck -2.19862 -1.48986 2.56674
head 1.51971 -0.83535 1.3849
rclavicle -6.31141e-015 -3.57812e-015
rhumerus -39.0857 19.6746 -91.4736
rradius 31.4746
rwrist 27.8701
rhand -1.91334 -50.2221
rfingers 7.12502
rthumb -156.243 -258.774
lclavicle -6.31141e-015 -3.57812e-015
lhumerus -38.2422 2.12096 87.1766
lradius 32.3376
lwrist -12.3518
lhand -7.84207 -43.4973
lfingers 7.12502
lthumb 18.0608 -14.3158
rfemur -37.6212 5.12767 26.1315
rtibia 66.1616
rfoot -35.1712 -27.77
rtoes -0.212475
lfemur -40.8418 -9.37615 -23.1339
ltibia 66.3177
lfoot -37.2363 8.89454
ltoes -23.7017
320
root 8.50432 13.7365 23.2052 -169.709 -1.50887 -180.094
lowerback 12.3591 0.697291 1.32355
upperback -2.88319 1.18573 0.462754
thorax -10.0511 0.501893 -0.49567
lowerneck -13.2184 -1.19411 -3.59337
upperneck -2.0862 -1.5383 2.30989
head 1.64713 -0.871 1.27251
rclavicle -8.84592e-015 -2.38542e-015
rhumerus -38.4631 19.6803 -91.3127
rradius 31.0606
rwrist 28.8359
rhand -1.36034 -50.412
rfingers 7.12502
rthumb -155.713 -258.894
lclavicle -8.84592e-015 -2.38542e-015
lhumerus -38.244 1.99938 87.0113
lradius 32.3715
lwrist -12.288
lhand -6.52461 -42.5585
lfingers 7.12502
lthumb 19.328 -13.499
rfemur -37.8933 5.18072 26.1748
rtibia 66.742
rfoot -35.419 -28.0482
rtoes 0.737822
lfemur -41.1768 -9.36369 -23.1377
ltibia 66.8867
lfoot -37.3504 8.74287
ltoes -23.5494
321
root 8.51451 13.6979 23.1944 -169.657 -1.8155 -180.029
lowerback 13.0989 0.817439 1.46468
upperback -3.32195 1.3833 0.403144
thorax -10.9672 0.572843 -0.69831
lowerneck -13.4694 -1.23748 -3.53068
upperneck -1.54184 -1.56084 2.09516
head 1.87013 -0.875227 1.19229
rclavicle -4.27387e-015 -4.77083e-015
rhumerus -38.6189 19.2893 -91.3259
rradius 30.4466
rwrist 30.2926
rhand -1.05623 -50.2721
rfingers 7.12502
rthumb -155.422 -258.714
lclavicle -4.27387e-015 -4.77083e-015
lhumerus -39.1429 1.91179 86.7457
lradius 32.4553
lwrist -12.3314
lhand -6.69915 -42.926
lfingers 7.12502
lthumb 19.1601 -13.8498
rfemur -38.135 5.22838 26.3553
rtibia 67.2353
rfoot -35.4456 -28.4665
rtoes 1.07554
lfemur -41.5379 -9.37148 -23.0048
ltibia 67.4399
lfoot -37.5929 8.32566
ltoes -22.6651
322
root 8.52555 13.6654 23.1804 -169.668 -2.30689 -179.967
lowerback 12.9001 0.836609 1.4458
upperback -3.2218 1.40823 0.486462
thorax -10.7398 0.592031 -0.598191
lowerneck -13.7001 -1.155 -3.54355
upperneck -1.59401 -1.44847 1.87568
head 1.8871 -0.830486 1.12936
rclavicle 1.59028e-015 -1.19271e-015
rhumerus -37.7122 19.3996 -91.0688
rradius 29.4877
rwrist 31.5911
rhand -0.241311 -50.6615
rfingers 7.12502
rthumb -154.641 -258.995
lclavicle 1.59028e-015 -1.19271e-015
lhumerus -39.2013 2.27962 86.4714
lradius 32.27
lwrist -12.5764
lhand -7.96767 -43.8504
lfingers 7.12502
lthumb 17.9399 -14.6578
rfemur -38.2228 5.11636 26.5654
rtibia 67.6237
rfoot -35.6186 -28.7953
rtoes 1.4311
lfemur -41.8039 -9.48014 -22.8594
ltibia 67.9308
lfoot -37.8435 7.78169
ltoes -22.666
323
root 8.538 13.6414 23.1662 -169.647 -2.93813 -179.928
lowerback 12.4226 0.754875 1.37533
upperback -3.0117 1.28146 0.558937
thorax -10.2303 0.54493 -0.44304
lowerneck -13.8887 -0.98529 -3.32059
upperneck -1.77283 -1.26648 1.64041
head 1.84949 -0.755408 1.0236
rclavicle 1.64991e-014 -7.95139e-016
rhumerus -36.7836 20.1056 -91.063
rradius 28.8589
rwrist 32.3244
rhand 0.609137 -51.6794
rfingers 7.12502
rthumb -153.826 -259.895
lclavicle 1.64991e-014 -7.95139e-016
lhumerus -39.1497 2.78196 86.0677
lradius 32.1082
lwrist -12.7534
lhand -8.79869 -44.2472
lfingers 7.12502
lthumb 17.1402 -14.9832
rfemur -38.2581 4.88167 26.7774
rtibia 67.8948
rfoot -35.9879 -28.9484
rtoes 2.18867
lfemur -42.0564 -9.61204 -22.7249
ltibia 68.3185
lfoot -37.8701 7.64482
ltoes -24.3174
324
root 8.5524 13.6273 23.1528 -169.556 -3.56406 -179.895
lowerback 12.4034 0.755668 1.45538
upperback -3.16241 1.29387 0.531697
thorax -10.3836 0.542381 -0.520899
lowerneck -13.9339 -0.926696 -3.14872
upperneck -1.6291 -1.19712 1.45209
head 1.89979 -0.722607 0.937
rclavicle 1.77415e-014 1.39149e-014
rhumerus -36.5038 20.235 -91.0798
rradius 28.42
rwrist 33.3335
rhand 1.11074 -52.2921
rfingers 7.12502
rthumb -153.346 -260.436
lclavicle 1.77415e-014 1.39149e-014
lhumerus -39.6085 3.05919 85.6399
lradius 32.0123
lwrist -13.0229
lhand -9.09314 -44.4311
lfingers 7.12502
lthumb 16.8568 -15.1427
rfemur -38.2798 4.59601 26.984
rtibia 68.0004
rfoot -36.365 -29.0876
rtoes 3.0862
lfemur -42.2904 -9.71788 -22.5774
ltibia 68.543
lfoot -37.8487 7.37339
ltoes -25.136
325
root 8.56761 13.6261 23.1316 -169.462 -4.16615 -179.873
lowerback 12.2478 0.7834 1.45644
upperback -3.25527 1.32995 0.553364
thorax -10.3948 0.559316 -0.503653
lowerneck -14.1436 -0.852118 -3.12993
upperneck -1.3976 -1.07843 1.26096
head 2.01007 -0.665965 0.879589
rclavicle -2.06239e-014 6.75868e-015
rhumerus -35.9558 19.9324 -90.7857
rradius 27.8129
rwrist 34.7442
rhand 1.62441 -52.397
rfingers 7.12502
rthumb -152.855 -260.465
lclavicle -2.06239e-014 6.75868e-015
lhumerus -39.9478 3.62606 85.1847
lradius 31.8027
lwrist -13.7943
lhand -9.54262 -44.7202
lfingers 7.12502
lthumb 16.4241 -15.3955
rfemur -38.1567 4.25428 27.1829
rtibia 67.9117
rfoot -36.6647 -29.1917
rtoes 4.23709
lfemur -42.3903 -9.89651 -22.4171
ltibia 68.5809
lfoot -37.8599 6.83027
ltoes -24.7604
326
root 8.58053 13.6349 23.0996 -169.426 -4.72005 -179.807
lowerback 11.8795 0.931183 1.53416
upperback -3.30166 1.52472 0.469377
thorax -10.2212 0.646191 -0.671637
lowerneck -14.2843 -0.843365 -2.89372
upperneck -1.16715 -1.0784 1.05072
head 2.10883 -0.667781 0.770621
rclavicle 1.48095e-014 1.35174e-014
rhumerus -35.4564 18.9443 -90.3653
rradius 27.3423
rwrist 36.4014
rhand 2.01529 -52.2094
rfingers 7.12502
rthumb -152.481 -260.218
lclavicle 1.48095e-014 1.35174e-014
lhumerus -40.1989 3.81572 84.7211
lradius 31.4776
lwrist -14.5344
lhand -9.63986 -44.3359
lfingers 7.12502
lthumb 16.3304 -15.0034
rfemur -37.8535 3.98213 27.4027
rtibia 67.6336
rfoot -36.8142 -29.3354
rtoes 5.33018
lfemur -42.3105 -10.0982 -22.2323
ltibia 68.458
lfoot -37.8832 6.53969
ltoes -25.0805
327
root 8.59265 13.6565 23.064 -169.477 -5.21231 -179.677
lowerback 11.5401 1.00932 1.54098
upperback -3.34087 1.62602 0.516002
thorax -10.0638 0.696942 -0.638799
lowerneck -14.3718 -0.675302 -2.82568
upperneck -0.934597 -0.841247 0.877526
head 2.19647 -0.550081 0.717993
rclavicle -2.16675e-014 -9.14409e-015
rhumerus -35.1162 18.6753 -90.0873
rradius 27.0092
rwrist 37.9972
rhand 2.45902 -52.089
rfingers 7.12502
rthumb -152.057 -260.03
lclavicle -2.16675e-014 -9.14409e-015
lhumerus -40.6679 4.21758 84.2671
lradius 31.3619
lwrist -14.8288
lhand -9.40245 -43.6622
lfingers 7.12502
lthumb 16.559 -14.3487
rfemur -37.368 3.82224 27.6586
rtibia 67.1467
rfoot -37.0294 -29.4595
rtoes 6.39175
lfemur -42.0079 -10.1911 -22.0192
ltibia 68.1525
lfoot -37.9183 6.33351
ltoes -25.4195
328
root 8.60726 13.6849 23.0351 -169.521 -5.80739 -179.589
lowerback 11.5037 1.12641 1.55125
upperback -3.51796 1.78706 0.559024
thorax -10.2362 0.770748 -0.631345
lowerneck -14.5672 -0.566631 -2.74586
upperneck -0.503751 -0.665212 0.531972
head 2.37225 -0.467237 0.604234
rclavicle -1.38155e-014 1.27222e-014
rhumerus -35.0251 18.379 -89.8675
rradius 26.6657
rwrist 39.6189
rhand 3.13258 -52.3139
rfingers 7.12502
rthumb -151.413 -260.148
lclavicle -1.38155e-014 1.27222e-014
lhumerus -41.4649 4.10899 84.0315
lradius 31.6261
lwrist -14.9877
lhand -9.44068 -43.4801
lfingers 7.12502
lthumb 16.5222 -14.1635
rfemur -36.8478 3.47356 27.905
rtibia 66.492
rfoot -37.0556 -29.5539
rtoes 7.452
lfemur -41.6726 -10.3279 -21.8204
ltibia 67.6747
lfoot -37.8055 6.00566
ltoes -25.156
329
root 8.62335 13.7235 23.0077 -169.588 -6.58016 -179.582
lowerback 11.6737 1.12165 1.42218
upperback -3.8636 1.76045 0.5186
thorax -10.7242 0.755446 -0.604483
lowerneck -14.3761 -0.265737 -2.09176
upperneck -0.161076 -0.320785 -0.0297575
head 2.44297 -0.303232 0.330193
rclavicle -1.94809e-014 1.23246e-014
rhumerus -35.3473 17.9615 -90.0457
rradius 26.4702
rwrist 40.9987
rhand 3.46898 -52.8259
rfingers 7.12502
rthumb -151.091 -260.605
lclavicle -1.94809e-014 1.23246e-014
lhumerus -42.6396 3.85018 83.5866
lradius 32.1247
lwrist -14.9462
lhand -9.11561 -42.8208
lfingers 7.12502
lthumb 16.8351 -13.5306
rfemur -36.1883 2.90798 28.0922
rtibia 65.6262
rfoot -36.7808 -29.7651
rtoes 7.91173
lfemur -41.2236 -10.6487 -21.6636
ltibia 66.9934
lfoot -37.6149 5.46984
ltoes -24.5231
